<?xml version="1.0" encoding="UTF-8" standalone="no"?>
<svg
   xmlns:dc="http://purl.org/dc/elements/1.1/"
   xmlns:cc="http://creativecommons.org/ns#"
   xmlns:rdf="http://www.w3.org/1999/02/22-rdf-syntax-ns#"
   xmlns:svg="http://www.w3.org/2000/svg"
   xmlns="http://www.w3.org/2000/svg"
   xmlns:sodipodi="http://sodipodi.sourceforge.net/DTD/sodipodi-0.dtd"
   xmlns:inkscape="http://www.inkscape.org/namespaces/inkscape"
   version="1.1"
   x="0px"
   y="0px"
   width="128px"
   height="128px"
   viewBox="0 0 128 128"
   enable-background="new 0 0 128 128"
   xml:space="preserve"
   id="svg2"
   inkscape:version="0.48.4 r9939"
   sodipodi:docname="hearthstone.svg"><metadata
     id="metadata10"><rdf:RDF><cc:Work
         rdf:about=""><dc:format>image/svg+xml</dc:format><dc:type
           rdf:resource="http://purl.org/dc/dcmitype/StillImage" /></cc:Work></rdf:RDF></metadata><defs
     id="defs8" /><sodipodi:namedview
     pagecolor="#ffffff"
     bordercolor="#666666"
     borderopacity="1"
     objecttolerance="10"
     gridtolerance="10"
     guidetolerance="10"
     inkscape:pageopacity="0"
     inkscape:pageshadow="2"
     inkscape:window-width="1730"
     inkscape:window-height="763"
     id="namedview6"
     showgrid="false"
     inkscape:zoom="1.84375"
     inkscape:cx="-31.457627"
     inkscape:cy="64"
     inkscape:window-x="551"
     inkscape:window-y="543"
     inkscape:window-maximized="0"
     inkscape:current-layer="svg2" /><path style="fill:#4ca6cc;stroke:none;fill-opacity:0.00392157"
     d="M55.09,50.96c0,0,18.116-1.506,18.587,15.481C74.147,83.428,57.442,85.78,47.09,85.31   c-10.352-0.471-32.232-14.822-30.585-37.644l1.277-8.128l3.639-4.185c0,0,8.369-16.921,27.474-22.015c0,0,1.637-2.729,3.639-2.729   c2.001,0,3.639,2.183,6.55,2.547s4.003-2.729,6.732-2.547c2.729,0.182,2.911,2.183,5.822,2.729s17.103,2.183,28.565,17.831   c0,0,0.546,4.003,2.183,4.731c1.637,0.728,5.458,2.365,6.004,3.639c0.546,1.274,4.367,14.919,4.003,20.742   c-0.364,5.822-2.001,32.932-20.014,41.301l-0.364,4.912c0,0-13.464,12.008-34.024,10.553s-26.096-3.621-30.93-10.189   c-0.666-0.905-1.637-4.185-1.637-4.185l-1.819-3.821c0,0-1.637-2.729,1.819-2.183c3.457,0.546,16.011,5.458,22.925,5.64   s10.553-3.457,11.826-3.821c1.274-0.364,8.733-3.275,10.917-3.639c2.183-0.364,15.647-8.602,17.649-28.408   S72.911,34.99,62.722,34.808c0,0-6.368-0.182-7.824,0.728c-1.456,0.91-10.917,5.276-15.101,5.822c0,0-3.457,3.275-2.911,7.278   c0.546,4.003,0.546,17.78,15.101,17.805C51.987,66.441,55.463,64.565,55.09,50.96z"
     id="path4" /><path
     style="fill:#4ca6cc;stroke:none;fill-opacity:0.00392157"
     d="m 49.749203,116.39428 c -11.578919,-1.26346 -17.487504,-3.35923 -20.980245,-7.44167 -2.081398,-2.43281 -5.840717,-10.5041 -5.413949,-11.623796 0.423997,-1.112429 2.309273,-0.800743 11.139906,1.841708 7.275943,2.177238 9.099873,2.523508 13.559322,2.574238 4.950932,0.0563 5.343542,-0.0293 10.033899,-2.188692 2.684745,-1.236025 6.955932,-2.919501 9.491525,-3.741055 2.535593,-0.821559 5.624005,-2.185513 6.863132,-3.031013 3.588909,-2.44883 7.687962,-7.439284 9.965923,-12.133153 6.938072,-14.296298 5.364616,-27.737491 -4.352027,-37.177039 -8.515206,-8.272371 -18.924995,-10.658456 -28.061891,-6.432219 -2.018156,0.93349 -5.621917,2.368947 -8.008357,3.189902 -3.469303,1.19347 -4.595114,1.860692 -5.616861,3.328883 -1.17117,1.682904 -1.252887,2.221203 -0.978606,6.446406 0.1646,2.535593 0.685438,5.722143 1.157418,7.081223 1.745748,5.026931 5.890022,8.398929 11.077606,9.013323 2.558951,0.303067 2.591139,0.287246 3.557203,-1.748583 0.538269,-1.134317 1.241729,-4.592707 1.570696,-7.721945 l 0.595809,-5.667525 3.704861,0.265082 c 6.818345,0.48785 12.461761,4.652696 13.992739,10.326655 0.93511,3.465622 0.388556,11.04774 -0.985557,13.672109 C 68.458451,82.108946 60.117895,85.626484 48.499733,85.164138 43.225511,84.954251 42.632359,84.808667 38.245475,82.647327 27.916268,77.558308 20.055985,68.352911 17.448916,58.291901 c -0.956765,-3.692278 -1.107124,-10.758674 -0.3299,-15.504283 0.392055,-2.393828 1.01453,-3.762795 2.589506,-5.694916 1.140362,-1.398952 2.965724,-3.919772 4.056362,-5.601821 4.668051,-7.199364 13.380976,-14.065958 21.88575,-17.248001 1.71586,-0.641986 3.852947,-1.784195 4.74908,-2.538241 1.761769,-1.482431 1.922247,-1.471767 6.248559,0.415226 l 2.899121,1.2645 2.660484,-1.485403 c 3.234246,-1.805745 3.409136,-1.811052 6.460844,-0.196046 1.339999,0.709146 4.496306,1.807429 7.014017,2.440631 5.158481,1.297352 10.507357,3.837145 14.872521,7.061882 4.085781,3.018342 9.131981,8.782153 10.12383,11.563523 0.65721,1.84297 1.3469,2.603886 3.33994,3.684887 4.28037,2.321619 4.56633,2.784137 6.48245,10.484822 1.5201,6.109158 1.76824,8.033373 1.72451,13.373203 -0.11306,13.807268 -4.69382,27.555076 -11.66411,35.00633 -1.832774,1.959246 -4.358799,4.163824 -5.613389,4.899056 -2.049904,1.20133 -2.309597,1.58994 -2.562625,3.83478 -0.331455,2.94069 -1.326948,3.89723 -7.450273,7.15875 -10.473855,5.5788 -19.448037,6.90083 -35.18639,5.1835 l 0,0 z"
     id="path3763"
     inkscape:connector-curvature="0" /><path
     style="fill:#4ca6cc;fill-opacity:0.00392157"
     d="m 49.749203,116.39428 c -11.578919,-1.26346 -17.487504,-3.35923 -20.980245,-7.44167 -2.081398,-2.43281 -5.840717,-10.5041 -5.413949,-11.623796 0.423997,-1.112429 2.309273,-0.800743 11.139906,1.841708 7.275943,2.177238 9.099873,2.523508 13.559322,2.574238 4.950932,0.0563 5.343542,-0.0293 10.033899,-2.188692 2.684745,-1.236025 6.955932,-2.919501 9.491525,-3.741055 2.535593,-0.821559 5.624005,-2.185513 6.863132,-3.031013 3.588909,-2.44883 7.687962,-7.439284 9.965923,-12.133153 6.938072,-14.296298 5.364616,-27.737491 -4.352027,-37.177039 -8.515206,-8.272371 -18.924995,-10.658456 -28.061891,-6.432219 -2.018156,0.93349 -5.621917,2.368947 -8.008357,3.189902 -3.469303,1.19347 -4.595114,1.860692 -5.616861,3.328883 -1.17117,1.682904 -1.252887,2.221203 -0.978606,6.446406 0.1646,2.535593 0.685438,5.722143 1.157418,7.081223 1.745748,5.026931 5.890022,8.398929 11.077606,9.013323 2.558951,0.303067 2.591139,0.287246 3.557203,-1.748583 0.538269,-1.134317 1.241729,-4.592707 1.570696,-7.721945 l 0.595809,-5.667525 3.704861,0.265082 c 6.818345,0.48785 12.461761,4.652696 13.992739,10.326655 0.93511,3.465622 0.388556,11.04774 -0.985557,13.672109 C 68.463747,82.098837 60.145512,85.612041 48.499733,85.178533 43.199078,84.981218 42.654409,84.847572 38.246707,82.662731 27.89313,77.530609 20.053805,68.344494 17.448916,58.291901 c -0.956765,-3.692278 -1.107124,-10.758674 -0.3299,-15.504283 0.392055,-2.393828 1.01453,-3.762795 2.589506,-5.694916 1.140362,-1.398952 2.965724,-3.919772 4.056362,-5.601821 4.668051,-7.199364 13.380976,-14.065958 21.88575,-17.248001 1.71586,-0.641986 3.852947,-1.784195 4.74908,-2.538241 1.761769,-1.482431 1.922247,-1.471767 6.248559,0.415226 l 2.899121,1.2645 2.660484,-1.485403 c 3.234246,-1.805745 3.409136,-1.811052 6.460844,-0.196046 1.339999,0.709146 4.496306,1.807429 7.014017,2.440631 5.158481,1.297352 10.507357,3.837145 14.872521,7.061882 4.085781,3.018342 9.131981,8.782153 10.12383,11.563523 0.65721,1.84297 1.3469,2.603886 3.33994,3.684887 4.28037,2.321619 4.56633,2.784137 6.48245,10.484822 1.5201,6.109158 1.76824,8.033373 1.72451,13.373203 -0.11306,13.807268 -4.69382,27.555076 -11.66411,35.00633 -1.832774,1.959246 -4.358799,4.163824 -5.613389,4.899056 -2.049904,1.20133 -2.309597,1.58994 -2.562625,3.83478 -0.331455,2.94069 -1.326948,3.89723 -7.450273,7.15875 -10.473855,5.5788 -19.448037,6.90083 -35.18639,5.1835 l 0,0 z"
     id="path3765"
     inkscape:connector-curvature="0" /><path
     style="fill:#4ca6cc;fill-opacity:0.00392157"
     d="m 49.749203,116.39428 c -11.578919,-1.26346 -17.487504,-3.35923 -20.980245,-7.44167 -1.790805,-2.09315 -5.663873,-10.037925 -5.663873,-11.618226 0,-1.181359 2.594944,-0.762902 11.602668,1.871045 7.482832,2.188061 9.43669,2.557701 13.617671,2.576271 4.598049,0.0204 5.164663,-0.10874 9.762712,-2.225632 2.684745,-1.236025 6.955932,-2.919501 9.491525,-3.741055 2.535593,-0.821559 5.624005,-2.185513 6.863132,-3.031013 3.588909,-2.44883 7.687962,-7.439284 9.965923,-12.133153 6.938072,-14.296298 5.364616,-27.737491 -4.352027,-37.177039 -8.515206,-8.272371 -18.924995,-10.658456 -28.061891,-6.432219 -2.018156,0.93349 -5.621917,2.368947 -8.008357,3.189902 -3.47102,1.194061 -4.594194,1.859966 -5.614789,3.328883 -1.154156,1.661148 -1.249154,2.249965 -0.996297,6.175219 0.644831,10.010114 4.73616,15.475753 12.250643,16.365733 2.526624,0.299238 2.601692,0.265009 3.480649,-1.58726 0.955694,-2.013973 1.969902,-7.910429 1.987694,-11.556162 l 0.01074,-2.201419 3.92717,0.419618 c 7.119581,0.760725 12.493673,4.740533 14.015051,10.378907 0.93511,3.465622 0.388556,11.04774 -0.985557,13.672109 -2.405961,4.595075 -7.534218,8.0128 -14.135903,9.42087 -4.717504,1.006194 -12.67817,0.7799 -16.208021,-0.460746 C 30.537655,80.25773 20.277697,69.32666 17.453032,58.335271 16.492514,54.597684 16.340867,47.538876 17.119016,42.787618 c 0.392055,-2.393828 1.01453,-3.762795 2.589506,-5.694916 1.140362,-1.398952 2.965724,-3.919772 4.056362,-5.601821 4.668051,-7.199364 13.380976,-14.065958 21.88575,-17.248001 1.71586,-0.641986 3.852947,-1.784195 4.74908,-2.538241 1.761769,-1.482431 1.922247,-1.471767 6.248559,0.415226 l 2.899121,1.2645 2.660484,-1.485403 c 3.234246,-1.805745 3.409136,-1.811052 6.460844,-0.196046 1.339999,0.709146 4.496306,1.807429 7.014017,2.440631 5.158481,1.297352 10.507357,3.837145 14.872521,7.061882 4.085781,3.018342 9.131981,8.782153 10.12383,11.563523 0.66415,1.862419 1.34361,2.602066 3.42954,3.733277 1.43071,0.775887 3.0553,1.874192 3.6102,2.440678 1.14358,1.167446 3.42084,9.466713 4.35998,15.889492 1.40936,9.638722 -2.05937,26.043522 -7.46279,35.294006 -1.89728,3.248076 -6.920004,8.479811 -9.712817,10.116995 -2.000575,1.17277 -2.2654,1.57344 -2.517337,3.80863 -0.331455,2.94069 -1.326948,3.89723 -7.450273,7.15875 -10.473855,5.5788 -19.448037,6.90083 -35.18639,5.1835 l 0,0 z"
     id="path3767"
     inkscape:connector-curvature="0" /><path
     style="fill:#4ca6cc;fill-opacity:0.00392157"
     d="m 49.749203,116.39428 c -11.578919,-1.26346 -17.487504,-3.35923 -20.980245,-7.44167 -1.790805,-2.09315 -5.663873,-10.037925 -5.663873,-11.618226 0,-1.181359 2.594944,-0.762902 11.602668,1.871045 7.482832,2.188061 9.43669,2.557701 13.617671,2.576271 4.598049,0.0204 5.164663,-0.10874 9.762712,-2.225632 2.684745,-1.236025 6.955932,-2.919501 9.491525,-3.741055 2.535593,-0.821559 5.624005,-2.185513 6.863132,-3.031013 3.588909,-2.44883 7.687962,-7.439284 9.965923,-12.133153 6.938072,-14.296298 5.364616,-27.737491 -4.352027,-37.177039 -8.515206,-8.272371 -18.924995,-10.658456 -28.061891,-6.432219 -2.018156,0.93349 -5.621917,2.368947 -8.008357,3.189902 -3.47102,1.194061 -4.594194,1.859966 -5.614789,3.328883 -1.154156,1.661148 -1.249154,2.249965 -0.996297,6.175219 0.644831,10.010114 4.73616,15.475753 12.250643,16.365733 2.526624,0.299238 2.601692,0.265009 3.480649,-1.58726 0.955694,-2.013973 1.969902,-7.910429 1.987694,-11.556162 l 0.01074,-2.201419 3.92717,0.419618 c 7.119581,0.760725 12.493673,4.740533 14.015051,10.378907 0.93511,3.465622 0.388556,11.04774 -0.985557,13.672109 -2.405961,4.595075 -7.534218,8.0128 -14.135903,9.42087 -4.717504,1.006194 -12.67817,0.7799 -16.208021,-0.460746 C 30.537655,80.25773 20.277697,69.32666 17.453032,58.335271 16.492514,54.597684 16.340867,47.538876 17.119016,42.787618 c 0.392055,-2.393828 1.01453,-3.762795 2.589506,-5.694916 1.140362,-1.398952 2.965724,-3.919772 4.056362,-5.601821 4.668051,-7.199364 13.380976,-14.065958 21.88575,-17.248001 1.71586,-0.641986 3.852947,-1.784195 4.74908,-2.538241 1.761769,-1.482431 1.922247,-1.471767 6.248559,0.415226 l 2.899121,1.2645 2.660484,-1.485403 c 3.234246,-1.805745 3.409136,-1.811052 6.460844,-0.196046 1.339999,0.709146 4.496306,1.807429 7.014017,2.440631 5.158481,1.297352 10.507357,3.837145 14.872521,7.061882 4.085781,3.018342 9.131981,8.782153 10.12383,11.563523 0.66415,1.862419 1.34361,2.602066 3.42954,3.733277 1.43071,0.775887 3.0553,1.874192 3.6102,2.440678 1.14358,1.167446 3.42084,9.466713 4.35998,15.889492 1.40936,9.638722 -2.05937,26.043522 -7.46279,35.294006 -1.89728,3.248076 -6.920004,8.479811 -9.712817,10.116995 -2.000575,1.17277 -2.2654,1.57344 -2.517337,3.80863 -0.331455,2.94069 -1.326948,3.89723 -7.450273,7.15875 -10.473855,5.5788 -19.448037,6.90083 -35.18639,5.1835 l 0,0 z"
     id="path3769"
     inkscape:connector-curvature="0" /><path
     style="fill:#4ca6cc;fill-opacity:0.00392157"
     d="m 49.749203,116.39428 c -11.578919,-1.26346 -17.487504,-3.35923 -20.980245,-7.44167 -1.790805,-2.09315 -5.663873,-10.037925 -5.663873,-11.618226 0,-1.181359 2.594944,-0.762902 11.602668,1.871045 7.482832,2.188061 9.43669,2.557701 13.617671,2.576271 4.598049,0.0204 5.164663,-0.10874 9.762712,-2.225632 2.684745,-1.236025 6.955932,-2.919501 9.491525,-3.741055 2.535593,-0.821559 5.624005,-2.185513 6.863132,-3.031013 3.588909,-2.44883 7.687962,-7.439284 9.965923,-12.133153 6.938072,-14.296298 5.364616,-27.737491 -4.352027,-37.177039 -6.200732,-6.023902 -14.149677,-9.182872 -21.26557,-8.451096 -1.914649,0.196896 -5.015113,1.184545 -8.135593,2.591583 -2.773082,1.250394 -6.38434,2.673205 -8.025018,3.161803 -2.271047,0.676322 -3.287563,1.333759 -4.258856,2.754435 -1.152636,1.685922 -1.248822,2.284973 -0.996297,6.20506 0.644831,10.010114 4.73616,15.475753 12.250643,16.365733 2.526624,0.299238 2.601692,0.265009 3.480649,-1.58726 0.955694,-2.013973 1.969902,-7.910429 1.987694,-11.556162 l 0.01074,-2.201419 3.92717,0.419618 c 7.119581,0.760725 12.493673,4.740533 14.015051,10.378907 0.93511,3.465622 0.388556,11.04774 -0.985557,13.672109 -2.405961,4.595075 -7.534218,8.0128 -14.135903,9.42087 -4.717504,1.006194 -12.67817,0.7799 -16.208021,-0.460746 C 33.394514,81.261836 24.635829,73.719295 20.571676,65.977242 17.69508,60.497438 16.500084,55.839094 16.551436,50.305508 c 0.06493,-6.996212 0.810989,-10.296979 2.920479,-12.920893 1.013938,-1.2612 2.860108,-3.810636 4.102601,-5.665414 5.116241,-7.63747 13.483718,-14.261493 22.076118,-17.476321 1.71586,-0.641986 3.852947,-1.784195 4.74908,-2.538241 1.761769,-1.482431 1.922247,-1.471767 6.248559,0.415226 l 2.899121,1.2645 2.660484,-1.485403 c 3.234246,-1.805745 3.409136,-1.811052 6.460844,-0.196046 1.339999,0.709146 4.496306,1.807429 7.014017,2.440631 5.158481,1.297352 10.507357,3.837145 14.872521,7.061882 4.085781,3.018342 9.131981,8.782153 10.12383,11.563523 0.66415,1.862419 1.34361,2.602066 3.42954,3.733277 1.43071,0.775887 3.0553,1.874192 3.6102,2.440678 1.14358,1.167446 3.42084,9.466713 4.35998,15.889492 1.40936,9.638722 -2.05937,26.043522 -7.46279,35.294006 -1.89728,3.248076 -6.920004,8.479811 -9.712817,10.116995 -2.000575,1.17277 -2.2654,1.57344 -2.517337,3.80863 -0.331455,2.94069 -1.326948,3.89723 -7.450273,7.15875 -10.473855,5.5788 -19.448037,6.90083 -35.18639,5.1835 l 0,0 z"
     id="path3771"
     inkscape:connector-curvature="0" /><path
     style="fill:#4ca6cc;fill-opacity:0.00392157"
     d="m 49.749203,116.39428 c -11.578919,-1.26346 -17.487504,-3.35923 -20.980245,-7.44167 -1.790805,-2.09315 -5.663873,-10.037925 -5.663873,-11.618226 0,-1.178284 2.585748,-0.76505 11.602668,1.854248 7.403763,2.150698 9.480869,2.543658 13.617671,2.576268 4.614746,0.0364 5.147965,-0.0842 9.762712,-2.208832 2.684745,-1.236025 6.955932,-2.919501 9.491525,-3.741055 C 70.115254,94.993454 73.203666,93.6295 74.442793,92.784 79.897844,89.061836 85.330115,80.777258 87.377546,73.057627 88.750639,67.880526 89.015875,61.150796 88.002262,57.206956 85.863713,48.88613 80.137942,41.804554 72.39789,37.907637 65.120657,34.243736 58.769621,33.975809 52.076517,37.050353 c -2.063101,0.947706 -5.703636,2.389411 -8.090076,3.203788 -3.472475,1.184987 -4.593766,1.846319 -5.614789,3.311577 -1.154428,1.656705 -1.249214,2.243694 -0.996297,6.169875 0.644831,10.010114 4.73616,15.475753 12.250643,16.365733 2.526624,0.299238 2.601692,0.265009 3.480649,-1.58726 0.955694,-2.013973 1.969902,-7.910429 1.987694,-11.556162 l 0.01074,-2.201419 3.713771,0.396816 c 10.69488,1.142745 15.898703,7.798614 14.644764,18.731157 -1.133966,9.886579 -9.542629,15.376559 -23.551324,15.376559 -3.731541,0 -5.976284,-0.294145 -8.194471,-1.073774 C 33.394514,81.261836 24.635829,73.719295 20.571676,65.977242 17.69508,60.497438 16.500084,55.839094 16.551436,50.305508 c 0.06493,-6.996212 0.810989,-10.296979 2.920479,-12.920893 1.013938,-1.2612 2.860108,-3.810636 4.102601,-5.665414 5.116241,-7.63747 13.483718,-14.261493 22.076118,-17.476321 1.71586,-0.641986 3.852947,-1.784195 4.74908,-2.538241 1.761769,-1.482431 1.922247,-1.471767 6.248559,0.415226 l 2.899121,1.2645 2.660484,-1.485403 c 3.234246,-1.805745 3.409136,-1.811052 6.460844,-0.196046 1.339999,0.709146 4.496306,1.807429 7.014017,2.440631 5.158481,1.297352 10.507357,3.837145 14.872521,7.061882 4.085781,3.018342 9.131981,8.782153 10.12383,11.563523 0.66415,1.862419 1.34361,2.602066 3.42954,3.733277 1.43071,0.775887 3.0553,1.874192 3.6102,2.440678 1.14358,1.167446 3.42084,9.466713 4.35998,15.889492 1.40936,9.638722 -2.05937,26.043522 -7.46279,35.294006 -1.89728,3.248076 -6.920004,8.479811 -9.712817,10.116995 -2.000575,1.17277 -2.2654,1.57344 -2.517337,3.80863 -0.331455,2.94069 -1.326948,3.89723 -7.450273,7.15875 -10.473855,5.5788 -19.448037,6.90083 -35.18639,5.1835 l 0,0 z"
     id="path3773"
     inkscape:connector-curvature="0" /><path
     style="fill:#4ca6cc;fill-opacity:0.00392157"
     d="m 49.749203,116.43089 c -11.676123,-1.33775 -17.50393,-3.41504 -20.980245,-7.47828 -1.790805,-2.09315 -5.663873,-10.037925 -5.663873,-11.618226 0,-1.178284 2.585748,-0.76505 11.602668,1.854248 7.403763,2.150698 9.480869,2.543658 13.617671,2.576268 4.614746,0.0364 5.147965,-0.0842 9.762712,-2.208832 2.684745,-1.236025 6.955932,-2.919501 9.491525,-3.741055 C 70.115254,94.993454 73.203666,93.6295 74.442793,92.784 79.900811,89.059813 85.33971,80.762462 87.373402,73.057627 88.612133,68.364578 88.986999,61.687663 88.218799,57.999957 85.44262,44.673085 71.45126,33.721129 58.856178,35.015912 c -1.665711,0.171236 -4.716559,1.086735 -6.779661,2.034441 -2.063101,0.947706 -5.703636,2.389411 -8.090076,3.203788 -3.472475,1.184987 -4.593766,1.846319 -5.614789,3.311577 -1.154428,1.656705 -1.249214,2.243694 -0.996297,6.169875 0.644831,10.010114 4.73616,15.475753 12.250643,16.365733 2.526624,0.299238 2.601692,0.265009 3.480649,-1.58726 0.955694,-2.013973 1.969902,-7.910429 1.987694,-11.556162 l 0.01074,-2.201419 3.713771,0.396816 c 10.69488,1.142745 15.898703,7.798614 14.644764,18.731157 -1.133966,9.886579 -9.542629,15.376559 -23.551324,15.376559 -3.731541,0 -5.976284,-0.294145 -8.194471,-1.073774 C 33.392531,81.261142 24.647778,73.728824 20.551626,65.955694 17.60906,60.371682 16.549225,56.27004 16.570686,50.549153 c 0.02689,-7.169177 0.761654,-10.503202 2.901229,-13.164538 1.013938,-1.2612 2.860108,-3.810636 4.102601,-5.665414 5.116241,-7.63747 13.483718,-14.261493 22.076118,-17.476321 1.71586,-0.641986 3.852947,-1.784195 4.74908,-2.538241 1.761769,-1.482431 1.922247,-1.471767 6.248559,0.415226 l 2.899121,1.2645 2.660484,-1.485403 c 3.234246,-1.805745 3.409136,-1.811052 6.460844,-0.196046 1.339999,0.709146 4.496306,1.807429 7.014017,2.440631 5.158481,1.297352 10.507357,3.837145 14.872521,7.061882 4.085781,3.018342 9.131981,8.782153 10.12383,11.563523 0.66415,1.862419 1.34361,2.602066 3.42954,3.733277 1.43071,0.775887 3.0553,1.874192 3.6102,2.440678 1.14358,1.167446 3.42084,9.466713 4.35998,15.889492 1.40936,9.638722 -2.05937,26.043522 -7.46279,35.294006 -1.89728,3.248076 -6.920004,8.479811 -9.712817,10.116995 -2.000575,1.17277 -2.2654,1.57344 -2.517337,3.80863 -0.21293,1.8891 -0.659488,2.80934 -1.832017,3.77533 -2.619151,2.15778 -12.160412,6.61705 -16.7369,7.82228 -5.630377,1.48276 -15.226123,1.79425 -24.067746,0.78125 l 0,0 z"
     id="path3775"
     inkscape:connector-curvature="0" /><path
     style="fill:#4ca6cc;fill-opacity:0.00392157"
     d="m 49.749203,116.43089 c -11.676123,-1.33775 -17.50393,-3.41504 -20.980245,-7.47828 -1.790805,-2.09315 -5.663873,-10.037925 -5.663873,-11.618226 0,-1.178284 2.585748,-0.76505 11.602668,1.854248 7.403763,2.150698 9.480869,2.543658 13.617671,2.576268 4.614746,0.0364 5.147965,-0.0842 9.762712,-2.208832 2.684745,-1.236025 6.955932,-2.919501 9.491525,-3.741055 C 70.115254,94.993454 73.203666,93.6295 74.442793,92.784 79.900811,89.059813 85.33971,80.762462 87.373402,73.057627 88.612133,68.364578 88.986999,61.687663 88.218799,57.999957 85.44262,44.673085 71.45126,33.721129 58.856178,35.015912 c -1.665711,0.171236 -4.716559,1.086735 -6.779661,2.034441 -2.063101,0.947706 -5.703636,2.389411 -8.090076,3.203788 -3.472475,1.184987 -4.593766,1.846319 -5.614789,3.311577 -1.154428,1.656705 -1.249214,2.243694 -0.996297,6.169875 0.644831,10.010114 4.73616,15.475753 12.250643,16.365733 2.526624,0.299238 2.601692,0.265009 3.480649,-1.58726 0.955694,-2.013973 1.969902,-7.910429 1.987694,-11.556162 l 0.01074,-2.201419 3.713771,0.396816 c 10.69488,1.142745 15.898703,7.798614 14.644764,18.731157 -1.133966,9.886579 -9.542629,15.376559 -23.551324,15.376559 -3.731541,0 -5.976284,-0.294145 -8.194471,-1.073774 C 33.392531,81.261142 24.647778,73.728824 20.551626,65.955694 17.60906,60.371682 16.549225,56.27004 16.570686,50.549153 c 0.02689,-7.169177 0.761654,-10.503202 2.901229,-13.164538 1.013938,-1.2612 2.849913,-3.795622 4.079943,-5.632051 5.173099,-7.723404 13.431494,-14.266839 22.098776,-17.509684 1.71586,-0.641986 3.852947,-1.784195 4.74908,-2.538241 1.761769,-1.482431 1.922247,-1.471767 6.248559,0.415226 l 2.899121,1.2645 2.660484,-1.485403 c 3.234246,-1.805745 3.409136,-1.811052 6.460844,-0.196046 1.339999,0.709146 4.496306,1.807429 7.014017,2.440631 5.158481,1.297352 10.507357,3.837145 14.872521,7.061882 4.085781,3.018342 9.131981,8.782153 10.12383,11.563523 0.66415,1.862419 1.34361,2.602066 3.42954,3.733277 1.43071,0.775887 3.0553,1.874192 3.6102,2.440678 1.14358,1.167446 3.42084,9.466713 4.35998,15.889492 1.40936,9.638722 -2.05937,26.043522 -7.46279,35.294006 -1.89728,3.248076 -6.920004,8.479811 -9.712817,10.116995 -2.000575,1.17277 -2.2654,1.57344 -2.517337,3.80863 -0.21293,1.8891 -0.659488,2.80934 -1.832017,3.77533 -2.619151,2.15778 -12.160412,6.61705 -16.7369,7.82228 -5.630377,1.48276 -15.226123,1.79425 -24.067746,0.78125 l 0,0 z"
     id="path3777"
     inkscape:connector-curvature="0" /><path
     style="fill:#4ca6cc;fill-opacity:1"
     d="m 49.749203,116.43089 c -11.676123,-1.33775 -17.50393,-3.41504 -20.980245,-7.47828 -1.790805,-2.09315 -5.663873,-10.037925 -5.663873,-11.618226 0,-1.178284 2.585748,-0.76505 11.602668,1.854248 7.403763,2.150698 9.480869,2.543658 13.617671,2.576268 4.614746,0.0364 5.147965,-0.0842 9.762712,-2.208832 2.684745,-1.236025 6.955932,-2.919501 9.491525,-3.741055 5.392022,-1.747065 8.123238,-3.479458 11.623729,-7.372849 C 86.680347,80.125988 90.426522,66.502313 87.901727,56.808978 84.519539,43.823884 70.93677,33.692018 58.753441,35.066244 c -1.722219,0.194259 -4.773066,1.107851 -6.779661,2.030205 -2.006596,0.922353 -5.600899,2.343315 -7.987339,3.157692 -3.439925,1.17388 -4.591844,1.848578 -5.559322,3.256191 -2.626963,3.822045 -0.770051,14.400947 3.315444,18.888213 1.666168,1.830022 4.901461,3.34961 7.883435,3.702781 2.526624,0.299238 2.601692,0.265009 3.480649,-1.58726 0.955694,-2.013973 1.969902,-7.910429 1.987694,-11.556162 l 0.01074,-2.201419 3.713771,0.396816 c 10.69488,1.142745 15.898703,7.798614 14.644764,18.731157 -1.133966,9.886579 -9.542629,15.376559 -23.551324,15.376559 -3.731541,0 -5.976284,-0.294145 -8.194471,-1.073774 C 32.901904,81.0887 24.496682,73.655208 20.21281,65.168428 16.855855,58.517967 15.98428,53.846397 16.708218,46.384113 c 0.572457,-5.900822 0.601303,-5.9731 4.642404,-11.632364 8.151514,-11.415593 14.642272,-16.895446 24.286125,-20.503674 1.723499,-0.644843 3.866834,-1.78939 4.762967,-2.543436 1.761769,-1.482431 1.922247,-1.471767 6.248559,0.415226 l 2.899121,1.2645 2.660484,-1.485403 c 3.234246,-1.805745 3.409136,-1.811052 6.460844,-0.196046 1.339999,0.709146 4.496306,1.807429 7.014017,2.440631 5.158481,1.297352 10.507357,3.837145 14.872521,7.061882 4.085781,3.018342 9.131981,8.782153 10.12383,11.563523 0.66415,1.862419 1.34361,2.602066 3.42954,3.733277 1.43071,0.775887 3.0553,1.874192 3.6102,2.440678 1.14358,1.167446 3.42084,9.466713 4.35998,15.889492 1.40936,9.638722 -2.05937,26.043522 -7.46279,35.294006 -1.89728,3.248076 -6.920004,8.479811 -9.712817,10.116995 -2.000575,1.17277 -2.2654,1.57344 -2.517337,3.80863 -0.21293,1.8891 -0.659488,2.80934 -1.832017,3.77533 -2.619151,2.15778 -12.160412,6.61705 -16.7369,7.82228 -5.630377,1.48276 -15.226123,1.79425 -24.067746,0.78125 l 0,0 z"
     id="path3779"
     inkscape:connector-curvature="0" /></svg>
